<svg width="16" height="16" viewBox="0 0 16 16" fill="none" xmlns="http://www.w3.org/2000/svg">
<path d="M3 12C3 12 2 12 2 11C2 10 3 7 8 7C13 7 14 10 14 11C14 12 13 12 13 12H3ZM8 6C8.79565 6 9.55871 5.68393 10.1213 5.12132C10.6839 4.55871 11 3.79565 11 3C11 2.20435 10.6839 1.44129 10.1213 0.87868C9.55871 0.316071 8.79565 0 8 0C7.20435 0 6.44129 0.316071 5.87868 0.87868C5.31607 1.44129 5 2.20435 5 3C5 3.79565 5.31607 4.55871 5.87868 5.12132C6.44129 5.68393 7.20435 6 8 6V6Z" fill="white"/>
</svg>
