<svg width="16" height="16" viewBox="0 0 16 16" fill="none" xmlns="http://www.w3.org/2000/svg">
<path d="M16 8C16 12.4187 12.4187 16 8 16C3.58125 16 0 12.4187 0 8C0 3.58125 3.58125 0 8 0C12.4187 0 16 3.58125 16 8ZM1.80344 6.00313L2.09594 6.54375C2.35531 6.99742 2.78184 7.33165 3.28437 7.475L5.06563 7.99062C5.63125 8.14375 6 8.63438 6 9.19375V10.4406C6 10.7844 6.19375 11.0969 6.5 11.2219C6.80625 11.4031 7 11.7156 7 12.0594V13.2781C7 13.7656 7.46562 14.1156 7.93437 13.9812C8.44062 13.8375 8.82813 13.4094 8.95625 12.9281L9.04375 12.5781C9.175 12.05 9.51875 11.5969 9.99063 11.325L10.2437 11.1812C10.7125 10.9156 11 10.4188 11 9.87813V9.62187C11 9.22187 10.8406 8.84062 10.5594 8.55937L10.4406 8.44063C10.1594 8.15938 9.775 7.97188 9.37813 7.97188H8.00313C7.68438 7.97188 7.34062 7.90938 7.0375 7.7375L5.95937 7.11875C5.825 7.04375 5.72188 6.91875 5.675 6.77187C5.575 6.47187 5.70937 6.14688 5.99062 6.00313L6.17812 5.9125C6.38437 5.80937 6.62188 5.79062 6.81563 5.86562L7.56875 6.10625C7.82187 6.19062 8.10313 6.09375 8.25313 5.87187C8.4 5.65 8.38437 5.35938 8.21562 5.15625L7.79063 4.65C7.47813 4.275 7.48125 3.72813 7.8 3.35938L8.29062 2.785C8.56562 2.46406 8.60937 2.005 8.4 1.63812L8.325 1.50812C8.19062 1.50281 8.10938 1.5 8 1.5C5.09687 1.5 2.6375 3.40313 1.80344 6.00313V6.00313ZM13.675 4.82812L12.875 5.15C12.3844 5.34688 12.1312 5.89063 12.2969 6.39375L12.825 7.97813C12.9344 8.30313 13.2 8.55 13.5312 8.63437L14.4438 8.85938C14.4813 8.57812 14.5 8.29063 14.5 8C14.5 6.85 14.2 5.76875 13.675 4.82812V4.82812Z" fill="white"/>
</svg>
