<svg width="16" height="16" viewBox="0 0 16 16" fill="none" xmlns="http://www.w3.org/2000/svg">
<g clip-path="url(#clip0_41_36)">
<path d="M12.5332 9.17867V7.92867L12.5339 7.89933C12.5339 7.808 12.5205 7.71933 12.4959 7.636L12.4972 7.64267C12.4732 7.57156 12.4021 7.536 12.2839 7.536C12.1656 7.536 12.1061 7.66711 12.1052 7.92933V8.036C12.0506 8.57216 12.0764 9.11348 12.1819 9.642L12.1759 9.608C12.1999 9.65556 12.2532 9.67933 12.3359 9.67933C12.3707 9.68289 12.4057 9.67427 12.4348 9.65494C12.464 9.63561 12.4856 9.60678 12.4959 9.57333V9.572C12.5192 9.48867 12.5325 9.392 12.5325 9.29333L12.5319 9.25V9.252L12.5332 9.17867ZM9.46187 6.964C9.47016 6.8403 9.45128 6.71629 9.40654 6.60067L9.40854 6.60667C9.37298 6.53556 9.27187 6.5 9.1052 6.5V9.5C9.27187 9.5 9.37298 9.45844 9.40854 9.37533C9.45223 9.24192 9.47032 9.10146 9.46187 8.96133V8.964V6.964ZM15.9999 1.71467V1.68467C15.9999 1.22067 15.8085 0.800667 15.5005 0.500667L15.4999 0.500001C15.346 0.341517 15.1618 0.215585 14.9583 0.129691C14.7548 0.043797 14.5361 -0.000306995 14.3152 5.72646e-07H14.2839H14.2852H1.68387C1.46296 -0.000382805 1.24424 0.0436867 1.04071 0.129585C0.837192 0.215484 0.653033 0.341456 0.499203 0.500001L0.498537 0.500667C0.340053 0.654543 0.214122 0.838711 0.128227 1.04222C0.0423332 1.24573 -0.00177081 1.46444 -0.00146325 1.68533V1.716V1.71467V14.3153C-0.00146325 14.7793 0.18987 15.1993 0.49787 15.4993L0.498537 15.5C0.799203 15.8087 1.21854 16 1.6832 16H1.71454H1.7132H14.3152C14.7792 16 15.1992 15.8087 15.4992 15.5007L15.4999 15.5C15.8085 15.1993 15.9999 14.78 15.9999 14.3153V14.2853V14.2867V1.71467ZM3.46654 5.71467V10.2867H2.28587V5.71533L3.46654 5.71467ZM7.50254 5.71467V10.2867H6.50054V7.17933L6.07387 10.2867H5.32187L4.8952 7.25067V10.2867H3.8572V5.71533H5.39254C5.46365 6.16778 5.55898 6.87022 5.67854 7.82267L5.71454 7.85867L5.96454 5.716L7.50254 5.71467ZM10.6092 7.32133V8.28533C10.6254 8.77773 10.5998 9.27062 10.5325 9.75867L10.5379 9.714C10.4712 9.96933 10.2659 10.164 10.0085 10.2133L10.0045 10.214C9.49032 10.281 8.9714 10.3048 8.4532 10.2853L8.4692 10.286H7.93587V5.71467H8.93587C9.26834 5.703 9.60106 5.72849 9.92787 5.79067L9.89987 5.786C10.2325 5.858 10.4872 6.12533 10.5392 6.46L10.5399 6.46467C10.5976 6.71164 10.6223 6.96519 10.6132 7.21867V7.214L10.6092 7.32133ZM13.6812 7.96133H13.6425V9.24733C13.6557 9.50677 13.6181 9.76629 13.5319 10.0113L13.5359 9.99733C13.4697 10.1064 13.3739 10.1943 13.2596 10.2508C13.1454 10.3074 13.0173 10.3302 12.8905 10.3167H12.8932H12.8699C12.5712 10.3167 12.3019 10.194 12.1079 9.99667L12.0719 10.2827H10.9999V5.71133H12.1065V7.21133C12.2056 7.09634 12.3301 7.0059 12.47 6.94713C12.61 6.88837 12.7617 6.86288 12.9132 6.87267H12.9105C13.0321 6.85994 13.1548 6.88133 13.2649 6.93443C13.375 6.98754 13.4682 7.07026 13.5339 7.17333L13.5352 7.176C13.6542 7.42202 13.7035 7.69593 13.6779 7.968L13.6785 7.962L13.6812 7.96133Z" fill="white"/>
</g>
<defs>
<clipPath id="clip0_41_36">
<rect width="16" height="16" fill="white"/>
</clipPath>
</defs>
</svg>
