<svg width="16" height="16" viewBox="0 0 16 16" fill="none" xmlns="http://www.w3.org/2000/svg">
<path d="M1.3335 12.6667C1.3335 13.8 2.20016 14.6667 3.3335 14.6667H12.6668C13.8002 14.6667 14.6668 13.8 14.6668 12.6667V7.33333H1.3335V12.6667ZM12.6668 2.66667H11.3335V2C11.3335 1.6 11.0668 1.33333 10.6668 1.33333C10.2668 1.33333 10.0002 1.6 10.0002 2V2.66667H6.00016V2C6.00016 1.6 5.7335 1.33333 5.3335 1.33333C4.9335 1.33333 4.66683 1.6 4.66683 2V2.66667H3.3335C2.20016 2.66667 1.3335 3.53333 1.3335 4.66667V6H14.6668V4.66667C14.6668 3.53333 13.8002 2.66667 12.6668 2.66667Z" fill="white"/>
</svg>
